<svg width="16" height="17" viewBox="0 0 16 17" version="1.1" xmlns="http://www.w3.org/2000/svg" xmlns:xlink="http://www.w3.org/1999/xlink">
<title>football</title>
<desc>Created using Figma</desc>
<g id="Canvas" transform="translate(20 206)">
<g id="football">
<use xlink:href="#path0_fill" transform="translate(-20 -205.994)"/>
</g>
</g>
<defs>
<path id="path0_fill" fill-rule="evenodd" d="M 8 16C 6.41775 16 4.87102 15.5308 3.55542 14.6518C 2.23983 13.7727 1.21445 12.5233 0.608951 11.0615C 0.00345027 9.59966 -0.154931 7.99112 0.153751 6.43927C 0.462433 4.88743 1.22432 3.46196 2.34314 2.34314C 3.46196 1.22432 4.88743 0.462402 6.43927 0.153721C 7.99112 -0.154961 9.59966 0.00348079 11.0615 0.608982C 12.5233 1.21448 13.7727 2.23986 14.6517 3.55545C 15.5308 4.87105 16 6.41775 16 8C 16 10.1217 15.1572 12.1566 13.6569 13.6569C 12.1566 15.1572 10.1217 16 8 16ZM 12.754 13.182L 11.219 14.257C 11.7776 13.9685 12.2952 13.6066 12.758 13.181L 12.754 13.182ZM 9.13398 1.06L 9.654 1.16001C 9.48466 1.12001 9.31267 1.08633 9.138 1.05899L 9.13398 1.06ZM 10.266 1.34L 10.876 2.56L 8.31598 3.84L 5.11603 2.56L 6.396 1.28L 8.46997 0.980015C 8.31397 0.970015 8.158 0.955997 8 0.955997C 6.8868 0.955512 5.78945 1.21966 4.7984 1.72666C 3.80736 2.23366 2.95099 2.969 2.29999 3.87201C 2.77399 3.87201 3.513 3.836 3.513 3.836L 4.15302 6.71601L 2.23297 8.956L 0.966984 8.19699C 1.00659 9.75458 1.56472 11.2545 2.55298 12.459L 2.55298 10.88L 5.43299 11.52L 7.35303 13.76L 5.90601 14.724C 7.37797 15.1811 8.95955 15.1403 10.406 14.608L 9.27503 13.76L 11.195 11.199L 13.435 10.559L 13.696 12.123C 14.5706 10.9261 15.0426 9.4824 15.044 8C 15.044 7.923 15.034 7.84699 15.032 7.76999L 14.08 8.96L 12.16 7.04001L 12.16 3.84L 13.879 4.12702C 13.0185 2.8232 11.7489 1.84241 10.27 1.33899L 10.266 1.34ZM 6.396 10.56L 5.11603 7.35999L 7.99598 5.12L 10.876 7.35999L 9.59601 10.56L 6.396 10.56Z"/>
</defs>
</svg>
