<svg width="45" height="45" viewBox="0 0 45 45" version="1.1" xmlns="http://www.w3.org/2000/svg" xmlns:xlink="http://www.w3.org/1999/xlink">
<title>&#208;&#184;&#208;&#186;&#208;&#190;&#208;&#189;&#208;&#186;&#208;&#176; &#208;&#159;&#209;&#128;&#208;&#190;&#208;&#179;&#208;&#189;&#208;&#190;&#208;&#183;</title>
<desc>Created using Figma</desc>
<g id="Canvas" transform="translate(-2608 -63)">
<g id="&#208;&#184;&#208;&#186;&#208;&#190;&#208;&#189;&#208;&#186;&#208;&#176; &#208;&#159;&#209;&#128;&#208;&#190;&#208;&#179;&#208;&#189;&#208;&#190;&#208;&#183;">
<g id="box">
<use xlink:href="#path0_fill" transform="translate(2608 63)" fill="#D4D6E7"/>
</g>
<g id="Prognoz icon">
<g id="Ellipse">
<mask id="mask0_outline_ins">
<use xlink:href="#path1_fill" fill="white" transform="translate(2615 70)"/>
</mask>
<g mask="url(#mask0_outline_ins)">
<use xlink:href="#path2_stroke_2x" transform="translate(2615 70)" fill="#FFFFFF"/>
</g>
</g>
<g id="Vector">
<use xlink:href="#path3_stroke" transform="translate(2612 67)" fill="#FFFFFF"/>
</g>
<g id="Subtract">
<use xlink:href="#path4_fill" transform="translate(2623 78)" fill="#FFFFFF"/>
</g>
</g>
</g>
</g>
<defs>
<path id="path0_fill" d="M 45 22.5C 45 34.9264 34.9264 45 22.5 45C 10.0736 45 0 34.9264 0 22.5C 0 10.0736 10.0736 0 22.5 0C 34.9264 0 45 10.0736 45 22.5Z"/>
<path id="path1_fill" d="M 31 15.5C 31 24.0604 24.0604 31 15.5 31C 6.93959 31 0 24.0604 0 15.5C 0 6.93959 6.93959 0 15.5 0C 24.0604 0 31 6.93959 31 15.5Z"/>
<path id="path2_stroke_2x" d="M 29 15.5C 29 22.9558 22.9558 29 15.5 29L 15.5 33C 25.165 33 33 25.165 33 15.5L 29 15.5ZM 15.5 29C 8.04416 29 2 22.9558 2 15.5L -2 15.5C -2 25.165 5.83502 33 15.5 33L 15.5 29ZM 2 15.5C 2 8.04416 8.04416 2 15.5 2L 15.5 -2C 5.83502 -2 -2 5.83502 -2 15.5L 2 15.5ZM 15.5 2C 22.9558 2 29 8.04416 29 15.5L 33 15.5C 33 5.83502 25.165 -2 15.5 -2L 15.5 2Z"/>
<path id="path3_stroke" d="M 19.5 0C 19.5 -0.552285 19.0523 -1 18.5 -1C 17.9477 -1 17.5 -0.552285 17.5 0L 19.5 0ZM 17.5 37C 17.5 37.5523 17.9477 38 18.5 38C 19.0523 38 19.5 37.5523 19.5 37L 17.5 37ZM 37 19.5C 37.5523 19.5 38 19.0523 38 18.5C 38 17.9477 37.5523 17.5 37 17.5L 37 19.5ZM 0 17.5C -0.552285 17.5 -1 17.9477 -1 18.5C -1 19.0523 -0.552285 19.5 0 19.5L 0 17.5ZM 6 19.5C 6.55228 19.5 7 19.0523 7 18.5C 7 17.9477 6.55228 17.5 6 17.5L 6 19.5ZM 31 17.5C 30.4477 17.5 30 17.9477 30 18.5C 30 19.0523 30.4477 19.5 31 19.5L 31 17.5ZM 19.5 31C 19.5 30.4477 19.0523 30 18.5 30C 17.9477 30 17.5 30.4477 17.5 31L 19.5 31ZM 17.5 6C 17.5 6.55228 17.9477 7 18.5 7C 19.0523 7 19.5 6.55228 19.5 6L 17.5 6ZM 6 17.5L 0 17.5L 0 19.5L 6 19.5L 6 17.5ZM 31 19.5L 37 19.5L 37 17.5L 31 17.5L 31 19.5ZM 17.5 31L 17.5 37L 19.5 37L 19.5 31L 17.5 31ZM 17.5 0L 17.5 6L 19.5 6L 19.5 0L 17.5 0Z"/>
<path id="path4_fill" fill-rule="evenodd" d="M 7.5 15C 11.6421 15 15 11.6421 15 7.5C 15 3.35786 11.6421 0 7.5 0C 3.35791 0 0 3.35786 0 7.5C 0 11.6421 3.35791 15 7.5 15ZM 10.7202 5.86441C 11.0005 5.38846 10.8418 4.77551 10.3657 4.49536C 9.88989 4.2152 9.27686 4.37393 8.99683 4.84988L 6.95776 8.31379L 6.07104 7.40987C 5.68433 7.01562 5.05103 7.00956 4.65698 7.39632C 4.2627 7.78309 4.25659 8.41623 4.64331 8.81047L 6.44385 10.6458C 6.66162 10.8679 6.97046 10.9759 7.2793 10.9381C 7.58813 10.9003 7.86157 10.7209 8.01953 10.4528L 10.7202 5.86441Z"/>
</defs>
</svg>
