<svg width="22" height="23" viewBox="0 0 22 23" version="1.1" xmlns="http://www.w3.org/2000/svg" xmlns:xlink="http://www.w3.org/1999/xlink">
<title>#4</title>
<desc>Created using Figma</desc>
<g id="Canvas" transform="translate(-1005 2502)">
<g id="#4">
<g id="Login">
<g id="Login (Stroke)">
<use xlink:href="#path0_fill" transform="translate(1005.25 -2501.75)" fill="#000000" fill-opacity="0.35"/>
</g>
</g>
</g>
</g>
<defs>
<path id="path0_fill" fill-rule="evenodd" d="M 15.4312 12.4765C 15.8591 11.8578 16.2278 11.1893 16.5205 10.528C 17.1402 9.12084 17.5 7.62189 17.5 6.42216C 17.5 2.84113 14.4324 0 10.75 0C 7.06712 0 4 2.84116 4 6.42216C 4 7.62185 4.35964 9.12078 4.97926 10.528C 5.27189 11.1893 5.64058 11.8578 6.06849 12.4765C 6.28166 12.7848 6.50952 13.0807 6.75 13.3572C 6.93222 13.5667 7.12168 13.7651 7.31747 13.9493L 6.75 13.9493C 6.28783 13.9493 5.83535 13.9941 5.39742 14.0794C 2.34563 14.6741 0 17.2399 0 20.3715L 0 21.2378C 0 21.5092 0.0600544 21.8736 0.347832 22.158C 0.633461 22.4402 0.998583 22.5 1.27632 22.5L 20.2237 22.5C 20.5014 22.5 20.8665 22.4402 21.1522 22.158C 21.4399 21.8736 21.5 21.5092 21.5 21.2378L 21.5 20.3715C 21.5 17.2398 19.1539 14.6739 16.1022 14.0793C 15.6644 13.994 15.212 13.9493 14.75 13.9493L 14.1821 13.9493C 14.378 13.765 14.5676 13.5664 14.75 13.3567C 14.9903 13.0803 15.2181 12.7846 15.4312 12.4765ZM 6.35152 9.92223C 6.84015 11.0261 7.55196 12.1104 8.3453 12.8568C 8.79325 13.2782 8.93855 13.9304 8.71188 14.5021C 8.48521 15.0739 7.9325 15.4493 7.31747 15.4493L 6.75 15.4493C 3.8123 15.4493 1.5 17.6998 1.5 20.3715L 1.5 21L 20 21L 20 20.3715C 20 17.6998 17.6873 15.4493 14.75 15.4493L 14.1821 15.4493C 13.5671 15.4493 13.0143 15.0739 12.7877 14.5021C 12.561 13.9304 12.7063 13.2782 13.1543 12.8568C 13.9476 12.1104 14.6595 11.0261 15.1482 9.92227C 15.7075 8.65199 16 7.36157 16 6.42216C 16 3.7505 13.6873 1.5 10.75 1.5C 7.8123 1.5 5.5 3.75046 5.5 6.42216C 5.5 7.36159 5.79238 8.65199 6.35152 9.92223Z"/>
</defs>
</svg>
