<svg width="18" height="23" viewBox="0 0 18 23" version="1.1" xmlns="http://www.w3.org/2000/svg" xmlns:xlink="http://www.w3.org/1999/xlink">
<title>#1</title>
<desc>Created using Figma</desc>
<g id="Canvas" transform="translate(-705 2502)">
<g id="#1">
<g id="Free">
<g id="Free (Stroke)">
<use xlink:href="#path0_fill" transform="translate(705 -2501.58)" fill="#000000" fill-opacity="0.35"/>
</g>
</g>
</g>
</g>
<defs>
<path id="path0_fill" fill-rule="evenodd" d="M 1.52542 18.8353C 1.52274 18.743 1.52124 18.6455 1.52065 18.5427C 1.49119 13.5534 1.49219 8.56405 1.51915 3.57473C 1.51986 3.44639 1.52165 3.32604 1.525 3.21318C 1.53652 2.82483 1.56647 2.52518 1.63431 2.29418C 1.71936 2.0046 1.86394 1.82291 2.10639 1.70964C 2.3643 1.58914 2.73296 1.54608 3.2585 1.53292C 3.33966 1.53089 3.42457 1.52957 3.51339 1.52879C 3.77257 1.52649 4.03175 1.52436 4.29093 1.52239C 7.69181 1.49658 11.0934 1.49925 14.4942 1.53078C 15.1893 1.53732 15.6414 1.57722 15.9355 1.73603C 16.1502 1.85195 16.2806 2.03122 16.3599 2.30712C 16.4457 2.60626 16.4714 3.01899 16.4789 3.58771C 16.4972 4.94492 16.4981 6.30243 16.4951 7.66C 16.4943 8.05031 16.4931 8.44063 16.4919 8.83095C 16.4899 9.49509 16.4879 10.1593 16.4875 10.8234C 16.4875 10.827 16.4875 10.8305 16.4875 10.8341C 16.4875 10.9133 16.4874 10.9925 16.4874 11.0717C 16.4874 11.1089 16.4874 11.1461 16.4875 11.1833C 16.4877 11.8866 16.4901 12.5901 16.4925 13.2935C 16.4984 15.0477 16.5043 16.802 16.477 18.5557C 16.4718 18.8915 16.4581 19.1693 16.4259 19.399C 16.3402 20.0115 16.123 20.2813 15.5853 20.3953C 15.3349 20.4483 15.015 20.4676 14.6065 20.4718C 13.4501 20.4837 12.2935 20.4921 11.1369 20.4968C 8.87576 20.5061 6.61447 20.5015 4.35348 20.4825C 4.02801 20.4797 3.70254 20.4767 3.37708 20.4733C 3.07347 20.4702 2.81859 20.4584 2.60482 20.4299C 2.03701 20.3543 1.75919 20.1617 1.62838 19.7049C 1.56484 19.483 1.53598 19.1988 1.52542 18.8353ZM 12.4813 17.7039C 12.4568 17.348 12.2496 17.0655 11.8752 17.062C 11.827 17.0616 11.7766 17.0611 11.7239 17.0607C 11.7241 17.0607 11.7237 17.0607 11.7239 17.0607C 11.6461 17.06 11.5629 17.0594 11.4758 17.0588C 10.9013 17.0548 10.1341 17.052 9.29548 17.0506C 7.48008 17.0474 5.33035 17.0502 4.0787 17.0598C 3.99028 17.0604 3.90633 17.0611 3.82731 17.0619C 3.82736 17.0619 3.82725 17.0619 3.82731 17.0619C 3.76989 17.0624 3.71489 17.063 3.66283 17.0635C 3.29035 17.0675 3.08114 17.3535 3.06067 17.7084C 3.03454 18.1589 3.26891 18.4284 3.678 18.4788C 3.67788 18.4788 3.67813 18.4788 3.678 18.4788C 3.7144 18.4833 3.75256 18.4861 3.79165 18.4871C 3.85079 18.4885 3.92564 18.4898 4.01395 18.491C 4.83996 18.5015 6.84323 18.4976 8.17294 18.4951L 8.17867 18.495C 8.67991 18.4941 9.08479 18.4933 9.29372 18.4936C 9.52285 18.4938 9.75197 18.4952 9.98109 18.4966L 9.98458 18.4966C 10.5019 18.4997 11.0191 18.5028 11.5362 18.4934C 11.6109 18.4921 11.6856 18.4905 11.7603 18.4886C 11.795 18.4877 11.8287 18.4854 11.8612 18.4817C 11.8609 18.4817 11.8614 18.4817 11.8612 18.4817C 12.2795 18.4343 12.5133 18.1599 12.4813 17.7039ZM 14.9874 11.117C 14.9183 11.7658 14.5579 12.002 13.8174 11.9958L 4.09988 11.9933C 3.18464 12.0008 2.99341 11.5301 3.00439 10.7515L 3.00539 7.28592C 2.99591 6.53872 3.11924 6.00065 4.05993 6.00664L 14.0271 6.01163C 14.8011 6.00964 14.9968 6.43789 14.9943 7.1217L 14.9998 10.8363C 15.0005 10.9199 14.9979 10.9983 14.9917 11.0717C 14.9905 11.087 14.989 11.1021 14.9874 11.117ZM 8.83967 3.06205C 9.21415 3.06554 9.42136 3.34805 9.44583 3.70393C 9.47778 4.15989 9.24476 4.43425 8.82642 4.48163C 8.82618 4.48166 8.82666 4.48161 8.82642 4.48163C 8.7939 4.48529 8.75955 4.48767 8.72483 4.48857C 8.65012 4.49047 8.57541 4.49208 8.5007 4.49343C 7.98362 4.50277 7.46636 4.49968 6.94904 4.49659C 6.71887 4.49521 6.48842 4.49384 6.25824 4.49356C 6.00273 4.49325 5.74723 4.49448 5.49174 4.49571C 4.99844 4.49809 4.50516 4.50047 4.01209 4.49174C 3.93861 4.49044 3.86513 4.4889 3.79165 4.48707C 3.75256 4.48609 3.71478 4.48335 3.67839 4.47888C 3.67826 4.47886 3.67852 4.4789 3.67839 4.47888C 3.26929 4.42846 3.03454 4.15887 3.06067 3.70842C 3.08114 3.35354 3.29035 3.06754 3.66283 3.06354C 3.7176 3.06294 3.77237 3.06236 3.82714 3.0618C 3.8272 3.0618 3.82709 3.0618 3.82714 3.0618C 3.91067 3.06094 3.99436 3.06012 4.07789 3.05936C 4.80523 3.05267 5.53263 3.0494 6.25999 3.04932C 6.98707 3.04924 7.7141 3.05235 8.44097 3.05842C 8.52327 3.05911 8.60556 3.05983 8.68785 3.0606C 8.68803 3.0606 8.68766 3.06059 8.68785 3.0606C 8.73827 3.06106 8.78925 3.06155 8.83967 3.06205ZM 13.5598 15.4934C 13.0428 15.5028 12.5256 15.4997 12.0084 15.4966C 11.7781 15.4952 11.5477 15.4938 11.3174 15.4936C 11.1209 15.4933 10.6355 15.494 9.99924 15.4949L 9.99551 15.4949C 8.14275 15.4975 5.01565 15.5018 4.01469 15.4906C 3.92064 15.4896 3.84534 15.4884 3.79165 15.4871C 3.75256 15.4861 3.71478 15.4834 3.67839 15.4789C 3.67852 15.4789 3.67826 15.4789 3.67839 15.4789C 3.26929 15.4285 3.03454 15.1589 3.06067 14.7084C 3.08114 14.3535 3.29035 14.0675 3.66283 14.0635C 3.71335 14.063 3.7682 14.0625 3.82714 14.0619C 3.82708 14.0619 3.8272 14.0619 3.82714 14.0619C 3.90427 14.0612 3.98856 14.0606 4.0791 14.06C 5.5873 14.0495 8.87713 14.0469 11.3191 14.0514C 12.1955 14.053 12.9626 14.0555 13.4991 14.0589C 13.5883 14.0595 13.6711 14.0601 13.747 14.0607C 13.7468 14.0607 13.7472 14.0607 13.747 14.0607C 13.801 14.0611 13.852 14.0616 13.8988 14.062C 14.2733 14.0655 14.4805 14.3481 14.505 14.7039C 14.5369 15.1599 14.3039 15.4343 13.8856 15.4816C 13.8858 15.4816 13.8853 15.4817 13.8856 15.4816C 13.853 15.4853 13.8187 15.4877 13.784 15.4886C 13.7093 15.4905 13.6346 15.4921 13.5598 15.4934ZM 17.9092 19.6225C 17.9544 19.3518 17.9786 19.0568 17.9824 18.7373C 18.0033 16.9427 17.9984 15.1475 17.9936 13.3526C 17.9915 12.5739 17.9894 11.7943 17.9894 11.0157C 17.9892 10.211 17.9919 9.40624 17.9947 8.60147L 17.9947 8.60031C 18.001 6.74852 18.0073 4.89642 17.9784 3.04509C 17.9714 2.60602 17.9074 2.2074 17.7902 1.8544C 17.584 1.23377 17.2132 0.754135 16.6979 0.443605C 16.2681 0.184632 15.7379 0.0432709 15.1188 0.0358214C 11.5061 -0.0076102 7.89175 -0.0109049 4.2783 0.0224435C 4.01894 0.0248372 3.75958 0.0274196 3.50022 0.0301895C 3.50026 0.0301891 3.50018 0.03019 3.50022 0.0301895C 3.40882 0.0311657 3.3173 0.0321665 3.2259 0.0331892C 3.12051 0.0343685 3.01512 0.0355787 2.90972 0.0368197C 2.33681 0.043615 1.83883 0.159136 1.42538 0.372706C 0.839427 0.675386 0.423258 1.175 0.204218 1.84117C 0.0896645 2.18955 0.0290266 2.58349 0.0262145 3.01863C 0.0258593 3.07341 0.0255077 3.12818 0.0251596 3.18296C 0.0243474 3.31079 0.0235545 3.43861 0.022781 3.56644C 0.0227814 3.56638 0.0227806 3.56651 0.022781 3.56644C -0.00743817 8.5609 -0.00800869 13.5564 0.0235601 18.5513C 0.0235595 18.5512 0.0235606 18.5514 0.0235601 18.5513C 0.0242199 18.6557 0.0248955 18.7603 0.0255834 18.8647C 0.0257925 18.8965 0.0260028 18.9282 0.0262145 18.9599C 0.0291026 19.3983 0.0844564 19.7899 0.191039 20.1339C 0.501545 21.1363 1.24685 21.7355 2.39635 21.9153C 2.62584 21.9512 2.87145 21.9703 3.13292 21.9727C 3.53578 21.9763 3.93865 21.9795 4.34153 21.9824C 6.60859 21.9987 8.87578 22.0036 11.1429 21.9968C 12.3767 21.9931 13.6105 21.9859 14.8442 21.9752C 15.2325 21.9717 15.5826 21.9345 15.8958 21.8628C 17.0492 21.5986 17.7013 20.8656 17.9092 19.6225ZM 4.50533 7.50687L 13.4949 7.51137L 13.4993 10.4957L 4.50447 10.4934L 4.50533 7.50687ZM 14.0599 7.51258C 14.0599 7.51259 14.0592 7.51254 14.0578 7.51237L 14.0599 7.51258Z"/>
</defs>
</svg>
